<svg xmlns="http://www.w3.org/2000/svg" width="512" height="512" viewBox="0 0 512 512" fill="none">
  <rect width="512" height="512" rx="100" fill="#3B82F6"/>
  <circle cx="256" cy="256" r="150" fill="white"/>
  <!-- Accessibility icon based on the provided image -->
  <path d="M256 316C246 316 238 308 238 298C238 288 246 280 256 280C266 280 274 288 274 298C274 308 266 316 256 316Z" fill="#3B82F6"/>
  <path d="M305 248L285 268C277 260 267 256 256 256C245 256 235 260 227 268L207 248C219 236 237 228 256 228C275 228 293 236 305 248Z" fill="#3B82F6"/>
  <path d="M335 218L315 238C297 220 278 210 256 210C234 210 215 220 197 238L177 218C199 196 226 182 256 182C286 182 313 196 335 218Z" fill="#3B82F6"/>
  <path d="M309 290L329 310C329 310 329 310 329 310C329 318 324 325 317 328L297 308C303 305 307 298 309 290Z" fill="#3B82F6"/>
  <path d="M203 290C205 298 209 305 215 308L195 328C188 325 183 318 183 310C183 310 183 310 183 310L203 290Z" fill="#3B82F6"/>
</svg>
