<svg xmlns="http://www.w3.org/2000/svg" width="512" height="512" viewBox="0 0 512 512" fill="none">
  <rect width="512" height="512" rx="100" fill="#3B82F6"/>
  <!-- Wheelchair icon -->
  <path d="M192 256.4C192 242.7 179.3 230 165.7 230C152 230 139.3 242.7 139.3 256.4C139.3 270 152 282.7 165.7 282.7C179.3 282.7 192 270 192 256.4Z" fill="white"/>
  <path d="M241.3 166C241.3 179.7 228.7 192.3 215 192.3C201.3 192.3 188.7 179.7 188.7 166C188.7 152.3 201.3 139.7 215 139.7C228.7 139.7 241.3 152.3 241.3 166Z" fill="white"/>
  <path d="M215 217C223.3 217 230.7 212.7 235 206L234.7 205.7C243 195.7 256.7 192.7 268.3 196.3C293 203.7 308.3 229 302.7 254.3L291 308.7H336L346 263C346 262.7 346 262.3 346 262C352.7 229.3 333 195.7 300.7 186.3C275.7 179 250 187.7 234.3 207L232.7 209C231 211.3 228 213 224.7 213H215C206.3 213 199.3 220 199.3 228.7V274.3C199.3 283 206.3 290 215 290H267.3L275.3 250H230.7V228.7C226.3 224 220.7 221 215 221H206C198.7 217.7 191.3 217 184 217H165L160.3 182.3C157.7 165.3 142.7 153 125.7 155.7C108.7 158.3 96.3 173.3 99 190.3L104.3 228.7C107 246 122.3 258.7 139.7 255.3H179.7C184.3 226.3 215 223.3 236.3 224C234.7 223.3 231.7 223 229 222.3C225 219.7 220.3 217 215 217Z" fill="white"/>
  <path d="M372.7 352C341.7 352 316.7 377 316.7 408C316.7 439 341.7 464 372.7 464C403.7 464 428.7 439 428.7 408C428.7 377 403.7 352 372.7 352ZM372.7 443.7C353 443.7 337 427.7 337 408C337 388.3 353 372.3 372.7 372.3C392.3 372.3 408.3 388.3 408.3 408C408.3 427.7 392.3 443.7 372.7 443.7Z" fill="white"/>
  <path d="M212.3 352C181.3 352 156.3 377 156.3 408C156.3 439 181.3 464 212.3 464C243.3 464 268.3 439 268.3 408C268.3 377 243.3 352 212.3 352ZM212.3 443.7C192.7 443.7 176.7 427.7 176.7 408C176.7 388.3 192.7 372.3 212.3 372.3C232 372.3 248 388.3 248 408C248 427.7 232 443.7 212.3 443.7Z" fill="white"/>
</svg>
