<svg xmlns="http://www.w3.org/2000/svg" width="1200" height="630" viewBox="0 0 1200 630" fill="none">
  <rect width="1200" height="630" fill="#3B82F6"/>
  <!-- Wheelchair icon -->
  <path d="M252 310.4C252 296.7 239.3 284 225.7 284C212 284 199.3 296.7 199.3 310.4C199.3 324 212 336.7 225.7 336.7C239.3 336.7 252 324 252 310.4Z" fill="white"/>
  <path d="M301.3 220C301.3 233.7 288.7 246.3 275 246.3C261.3 246.3 248.7 233.7 248.7 220C248.7 206.3 261.3 193.7 275 193.7C288.7 193.7 301.3 206.3 301.3 220Z" fill="white"/>
  <path d="M275 271C283.3 271 290.7 266.7 295 260L294.7 259.7C303 249.7 316.7 246.7 328.3 250.3C353 257.7 368.3 283 362.7 308.3L351 362.7H396L406 317C406 316.7 406 316.3 406 316C412.7 283.3 393 249.7 360.7 240.3C335.7 233 310 241.7 294.3 261L292.7 263C291 265.3 288 267 284.7 267H275C266.3 267 259.3 274 259.3 282.7V328.3C259.3 337 266.3 344 275 344H327.3L335.3 304H290.7V282.7C286.3 278 280.7 275 275 275H266C258.7 271.7 251.3 271 244 271H225L220.3 236.3C217.7 219.3 202.7 207 185.7 209.7C168.7 212.3 156.3 227.3 159 244.3L164.3 282.7C167 300 182.3 312.7 199.7 309.3H239.7C244.3 280.3 275 277.3 296.3 278C294.7 277.3 291.7 277 289 276.3C285 273.7 280.3 271 275 271Z" fill="white"/>
  <path d="M432.7 406C401.7 406 376.7 431 376.7 462C376.7 493 401.7 518 432.7 518C463.7 518 488.7 493 488.7 462C488.7 431 463.7 406 432.7 406ZM432.7 497.7C413 497.7 397 481.7 397 462C397 442.3 413 426.3 432.7 426.3C452.3 426.3 468.3 442.3 468.3 462C468.3 481.7 452.3 497.7 432.7 497.7Z" fill="white"/>
  <path d="M272.3 406C241.3 406 216.3 431 216.3 462C216.3 493 241.3 518 272.3 518C303.3 518 328.3 493 328.3 462C328.3 431 303.3 406 272.3 406ZM272.3 497.7C252.7 497.7 236.7 481.7 236.7 462C236.7 442.3 252.7 426.3 272.3 426.3C292 426.3 308 442.3 308 462C308 481.7 292 497.7 272.3 497.7Z" fill="white"/>
  
  <!-- Text -->
  <text x="550" y="330" font-family="Arial, sans-serif" font-size="72" font-weight="bold" fill="white">WCAG Inspector</text>
  <text x="550" y="400" font-family="Arial, sans-serif" font-size="36" fill="white">Website Accessibility Analysis Tool</text>
</svg>
